<svg width="945" height="151" xmlns="http://www.w3.org/2000/svg" xmlns:xlink="http://www.w3.org/1999/xlink" overflow="hidden"><defs><clipPath id="clip0"><rect x="0" y="0" width="945" height="151"/></clipPath></defs><g clip-path="url(#clip0)"><rect x="0" y="0" width="945" height="150.807" fill="#FFFFFF"/><path d="M557.45-50.2092C552.886-50.2092 549.691-46.4054 547.865-38.798 546.343-33.0163 545.887-27.6911 546.496-22.8223 547.104-19.1708 548.321-17.0407 550.147-16.4321 552.277-15.8235 554.407-16.5842 556.537-18.7143 560.189-21.7573 562.623-27.3868 563.841-35.6029 565.362-45.3404 563.232-50.2092 557.45-50.2092ZM324.035-50.8653C321.809-50.8082 320.012-49.9809 318.643-48.3834 317.426-46.8619 316.056-43.6667 314.535-38.798L328.685-40.1673C329.598-43.5146 330.054-45.7968 330.054-47.014 330.054-48.8398 328.837-50.057 326.402-50.6656 325.566-50.8177 324.776-50.8843 324.035-50.8653ZM618.914-51.4929C616.46-51.3217 614.093-49.5245 611.81-46.1011 609.985-43.3624 608.311-39.7109 606.789-35.1464 605.268-30.2776 604.659-25.7132 604.964-21.453 605.268-17.1928 606.942-14.9106 609.985-14.6063 614.853-13.9977 618.961-17.8014 622.309-26.0175 623.83-29.3647 624.743-33.7771 625.047-39.2544 625.352-42.2974 625.2-44.8839 624.591-47.014 623.982-49.1441 622.917-50.5135 621.396-51.122 620.559-51.4263 619.732-51.55 618.914-51.4929ZM330.425-63.9026C331.547-63.8265 332.641-63.6743 333.706-63.4461 339.487-62.2289 343.291-58.8816 345.117-53.4043 347.247-47.6226 346.334-40.3195 342.378-31.4948L341.465-30.5819C329.902-29.669 320.164-28.604 312.253-27.3868 311.34-19.7794 313.622-15.367 319.099-14.1499 322.751-13.237 326.402-13.9977 330.054-16.4321 332.488-17.9536 335.379-20.388 338.726-23.7352L347.399-18.7143C344.052-12.6284 339.639-7.91175 334.162-4.56447 326.859 0 320.012 1.36934 313.622-0.456447 304.189-2.89083 298.559-9.28109 296.733-19.6272 294.908-29.0604 296.429-38.0372 301.298-46.5576 306.167-55.0779 312.253-60.4031 319.556-62.5332 323.436-63.6743 327.059-64.1308 330.425-63.9026ZM215.029-63.9026 231.005-62.9897C228.875-51.122 227.658-42.1453 227.353-36.0593 226.745-25.1046 226.288-12.9327 225.984 0.456447L210.008 0.456447 210.465-7.30315C206.205-3.65157 202.705-1.36934 199.967-0.456447 196.315 0.760744 192.511 0.456447 188.555-1.36934 181.252-4.71662 178.209-11.5633 179.427-21.9094L183.991-62.9897 200.423-60.7074 194.946-31.0384C194.033-26.7782 193.576-24.0395 193.576-22.8223 193.272-19.4751 194.489-17.345 197.228-16.4321 200.88-15.2149 205.444-17.0407 210.921-21.9094ZM98.179-63.9026 114.155-62.9897C112.025-51.122 110.807-42.1453 110.503-36.0593 109.894-25.1046 109.438-12.9327 109.134 0.456447L93.1581 0.456447 93.6145-7.30315C89.3544-3.65157 85.8549-1.36934 83.1162-0.456447 79.4647 0.760744 75.6609 0.456447 71.7051-1.36934 64.4019-4.71662 61.3589-11.5633 62.5761-21.9094L67.1406-62.9897 83.5727-60.7074 78.0953-31.0384C77.1824-26.7782 76.726-24.0395 76.726-22.8223 76.4217-19.4751 77.6389-17.345 80.3776-16.4321 84.0292-15.2149 88.5936-17.0407 94.071-21.9094ZM509.88-64.6158C510.831-64.5967 511.763-64.5112 512.676-64.359 517.544-63.4461 520.74-60.7074 522.261-56.143 523.174-53.7086 523.478-49.9049 523.174-44.7318L522.717-35.6029 520.892-0.912894 505.372-0.912894 507.198-38.3415C507.503-44.7318 505.372-47.4705 500.808-46.5576 498.374-45.949 496.091-44.7318 493.961-42.906 492.135-41.3845 490.158-39.2544 488.027-36.5157L485.289 0 470.682 0.456447C472.204-20.8444 473.878-41.9931 475.703-62.9897L490.766-63.9026 489.853-56.5994C494.418-59.6424 498.069-61.7725 500.808-62.9897 504.003-64.1308 507.027-64.6728 509.88-64.6158ZM151.312-64.8155C154.812-64.6633 158.235-63.7504 161.582-62.0768 165.538-60.251 168.125-57.6645 169.342-54.3172 170.255-51.8828 170.711-48.2312 170.711-43.3624L153.823-42.906C154.431-46.2533 154.735-48.3834 154.735-49.2963 154.431-51.4263 153.062-52.6435 150.627-52.9478 148.802-53.2521 147.432-52.9478 146.519-52.0349 145.302-50.8177 144.694-49.2963 144.694-47.4705 144.694-44.4275 146.215-41.5367 149.258-38.798L159.756-28.7562C168.885-19.9315 170.711-12.1719 165.234-5.47736 161.886-1.21719 155.192 0.912894 145.15 0.912894 139.064 0.912894 130.696 0.152149 120.046-1.36934L125.066-16.8885C129.022-15.0627 132.065-13.8456 134.195-13.237 139.368-11.7155 142.868-11.5633 144.694-12.7805 147.432-14.6063 147.128-17.1928 143.781-20.5401L138.303-26.0175C134.043-30.2776 131.305-33.4728 130.087-35.6029 127.957-39.2544 127.349-43.5146 128.262-48.3834 129.783-55.6865 133.891-60.5553 140.586-62.9897 144.237-64.359 147.813-64.9676 151.312-64.8155ZM620.483-65.2719C625.96-65.2719 630.677-63.294 634.633-59.3381 638.589-55.3822 640.567-48.992 640.567-40.1673 640.567-25.2567 637.067-14.302 630.068-7.30315 624.287-1.52149 617.896 1.36934 610.898 1.36934 606.637 1.36934 602.377-0.152149 598.117-3.19513 592.335-7.7596 589.445-14.1499 589.445-22.3659 589.445-33.6249 592.335-43.6667 598.117-52.4914 603.594-61.0117 611.05-65.2719 620.483-65.2719ZM241.546-90.3765 257.065-88.5507 254.783-47.014 279.888-67.0977 289.473-55.6865 268.02-38.3415 290.386-11.4112 278.062 0.456447 253.87-31.4948 252.957 0 236.982 0.456447C238.199-29.9733 239.72-60.251 241.546-90.3765ZM17.345-93.1152C21.3009-78.5089 25.4089-64.0547 29.6691-49.7527 33.3206-64.0547 36.8201-78.5089 40.1673-93.1152L55.2301-92.2023C53.1-82.1604 50.8178-72.1186 48.3834-62.0768 46.5576-54.4693 43.0582-42.2974 37.8851-25.561L36.9722-0.456447 20.5401 0.456447 21.9095-27.8433C15.2149-48.5355 8.97679-69.2278 3.19514-89.92ZM580.729-93.5716C579.512-62.5332 578.751-31.4948 578.447-0.456447L564.297 0.456447 563.841-8.21604C558.972-3.04298 553.647-0.304299 547.865 0 539.953 0.304299 534.78-4.86877 532.346-15.5192 530.216-25.8653 530.368-35.2986 532.802-43.8189 536.149-56.5994 542.388-63.294 551.517-63.9026 557.298-64.2069 561.711-62.6854 564.753-59.3381L565.666-93.1152ZM465.248-93.5716 463.879-76.6831 434.21-74.4008 432.84-50.6656 457.032-52.0349 456.119-34.69 432.384-32.8642 431.471-19.1708 462.966-20.0837 462.509-2.73868 413.67 0.912894C415.495-29.8212 417.625-60.5553 420.06-91.2894Z" stroke="#FFFFFF" stroke-width="0.998721" stroke-linejoin="round" stroke-miterlimit="10" fill="#FF0000" fill-rule="evenodd" transform="matrix(1.00128 0 0 1 149.86 125.883)"/><text fill="#000000" fill-opacity="0" font-family="Arial,Arial_MSFontService,sans-serif" font-size="94.9409" x="3.19514" y="-10.4983">Yusuke Endo</text></g></svg>